HIERARCHY
ROOT Hips
{
     OFFSET 1.88212 96.90440 -13.34250
     CHANNELS 6 Xposition Yposition Zposition Zrotation Xrotation Yrotation
     JOINT Spine
     {
          OFFSET 0.00000 11.89050 0.00000
          CHANNELS 3 Zrotation Xrotation Yrotation
          JOINT Spine1
          {
               OFFSET -0.00000 25.65740 0.12766
               CHANNELS 3 Zrotation Xrotation Yrotation
               JOINT HEad
               {
                    OFFSET 0.00000 8.73416 0.01134
                    CHANNELS 3 Zrotation Xrotation Yrotation
                    End Site
                    {
                         OFFSET -0.29000 12.77420 2.51395
                    }
               }
               JOINT LeftShoulder1
               {
                    OFFSET 8.99000 -0.36225 -0.22000
                    CHANNELS 3 Zrotation Xrotation Yrotation
                    JOINT LeftArm
                    {
                         OFFSET 10.28270 -0.00338 0.32212
                         CHANNELS 3 Zrotation Xrotation Yrotation
                         JOINT LeftForeArm
                         {
                              OFFSET 32.76690 0.09914 -1.42434
                              CHANNELS 3 Zrotation Xrotation Yrotation
                              JOINT LeftHand
                              {
                                   OFFSET 27.56430 0.08536 1.02216
                                   CHANNELS 3 Zrotation Xrotation Yrotation
                                   End Site
                                   {
                                        OFFSET 16.74430 -0.60000 1.50291
                                   }
                              }
                         }
                    }
               }
               JOINT RightShoulder
               {
                    OFFSET -8.99000 -0.36225 -0.22000
                    CHANNELS 3 Zrotation Xrotation Yrotation
                    JOINT RightArm
                    {
                         OFFSET -10.28270 -0.00338 0.32212
                         CHANNELS 3 Zrotation Xrotation Yrotation
                         JOINT RightForeArm
                         {
                              OFFSET -32.89710 0.09914 -1.42434
                              CHANNELS 3 Zrotation Xrotation Yrotation
                              JOINT RightHand
                              {
                                   OFFSET -27.49210 0.08536 1.02216
                                   CHANNELS 3 Zrotation Xrotation Yrotation
                                   End Site
                                   {
                                        OFFSET -16.63120 -0.60000 1.50291
                                   }
                              }
                         }
                    }
               }
          }
     }
     JOINT LeftUpLeg
     {
          OFFSET 8.94580 -8.66707 0.10165
          CHANNELS 3 Zrotation Xrotation Yrotation
          JOINT LeftLeg
          {
               OFFSET 0.00000 -44.42270 1.37270
               CHANNELS 3 Zrotation Xrotation Yrotation
               JOINT LeftFoot
               {
                    OFFSET -0.25355 -42.09240 -1.46059
                    CHANNELS 3 Zrotation Xrotation Yrotation
                    JOINT LeftToes
                    {
                         OFFSET -0.04000 -4.41509 8.49910
                         CHANNELS 3 Zrotation Xrotation Yrotation
                         End Site
                         {
                              OFFSET 0.08000 -0.04745 9.77979
                         }
                    }
               }
          }
     }
     JOINT RightUpLeg
     {
          OFFSET -8.94580 -8.66707 0.10165
          CHANNELS 3 Zrotation Xrotation Yrotation
          JOINT RightLeg
          {
               OFFSET 0.00000 -44.42270 1.37270
               CHANNELS 3 Zrotation Xrotation Yrotation
               JOINT RightFoot
               {
                    OFFSET 0.25355 -42.09240 -1.46059
                    CHANNELS 3 Zrotation Xrotation Yrotation
                    JOINT RightToes
                    {
                         OFFSET 0.04000 -4.41509 8.49910
                         CHANNELS 3 Zrotation Xrotation Yrotation
                         End Site
                         {
                              OFFSET -0.08000 -0.13745 9.77979
                         }
                    }
               }
          }
     }
}
MOTION
Frames: 15
Frame Time: 0.01667
42.96556 83.37663 -122.06618 1.20751 -5.45293 -31.14641 -8.60155 26.73484 4.39666 -0.04298 0.09713 0.02577 -12.47918 2.68265 19.14116 -21.20116 32.16054 10.82959 -108.86430 -62.22857 -85.16956 -48.19780 55.35051 -84.77766 2.28608 4.45025 4.83060 -16.83427 38.27786 16.33034 83.98782 -26.71438 84.97060 42.39812 49.61293 83.58784 -5.02235 5.69746 -5.11926 9.60367 -23.99565 14.67316 33.47374 29.12119 -16.79093 -22.28593 -0.00284 -0.01332 -4.08993 -20.58558 7.67906 -16.54025 -29.76646 -16.48050 -26.37905 47.22923 44.74389 31.04219 0.07902 0.16119 -27.66924 -27.06053 -3.06524 
43.38334 79.99042 -122.54549 0.99694 -4.48262 -27.81635 -9.48826 31.08284 2.53849 -0.04028 0.08716 0.01987 -12.95770 0.96624 19.30784 -19.95409 29.02778 9.25412 -105.60544 -61.50436 -79.92003 -43.67631 55.77470 -88.59682 8.69658 2.76058 1.40261 -13.65980 34.74630 15.60482 74.09024 -24.00033 74.33959 32.85284 46.06377 93.93928 -5.32690 6.44694 -0.66477 10.13071 -29.89558 11.59611 36.35550 35.07513 -17.43150 -22.16950 -0.00644 0.00260 -8.89023 -14.78969 -0.26281 -18.47361 -34.36488 -19.42121 -36.34284 54.16600 52.43327 37.10130 0.14430 0.22659 -33.34312 -33.14944 -2.72716 
43.93924 75.64463 -123.18115 1.23748 -3.55804 -22.84205 -10.18870 36.01822 -0.07989 -0.03817 0.07427 0.01905 -13.85242 -0.86174 19.28817 -29.07767 32.13975 15.31717 -106.78260 -55.73680 -91.09940 -40.28770 55.67927 -91.19582 3.05610 7.11616 -0.16001 -9.28623 31.07679 14.31402 67.98848 -21.39607 68.39153 27.19951 42.85380 99.75878 -5.15041 9.95140 2.03401 8.92108 -37.61854 6.85527 40.21128 41.57547 -20.32268 -22.09983 -0.00941 0.00143 -10.99992 -18.70633 -2.32696 -22.54619 -39.41185 -23.62191 -52.54498 60.99968 65.94910 44.30849 0.23917 0.28123 -39.82204 -39.86708 -2.95972 
44.52032 71.03784 -123.94974 1.48711 -2.92995 -18.36954 -11.65417 41.45918 -0.97424 -0.03775 0.06305 0.01332 -15.20996 -2.75973 19.05605 -24.28253 28.11455 11.26696 -104.43922 -55.51054 -87.85093 -37.77707 55.33554 -93.26866 6.94841 5.59704 -2.27041 -4.43103 27.10772 12.71981 64.43304 -19.36204 65.23627 23.75333 40.59485 103.30748 -4.84482 9.51517 4.00121 6.88092 -46.38969 2.43269 47.27515 48.63746 -27.42826 -22.79858 0.01491 -0.00931 -12.86407 -17.86629 -6.47521 -27.40837 -44.65211 -26.77783 -73.98148 66.61285 85.23821 51.20995 0.23564 0.19524 -46.31215 -45.38220 -3.04806 
45.04746 66.01840 -124.82257 1.80170 -2.53851 -14.30784 -14.11615 47.13650 0.01842 -0.04016 0.05168 0.01516 -17.06605 -4.81070 18.47619 -19.65585 23.89704 7.85997 -101.98316 -54.87534 -85.09193 -35.75902 55.07230 -95.38626 4.22683 8.10100 -2.61864 0.34230 22.90705 11.32195 62.69365 -18.12483 63.82135 22.66943 43.15504 108.22458 -7.35358 12.71160 1.97372 3.71892 -55.85702 -2.02492 58.20214 55.38240 -39.59418 -23.46232 0.01613 -0.01161 -14.62946 -19.73710 -9.20798 -33.16033 -49.63033 -29.12808 -101.56595 69.12609 111.25349 58.28978 0.22660 0.14289 -53.55052 -49.94452 -4.64647 
45.41447 60.99944 -125.77522 2.17463 -2.32536 -10.64568 -18.02734 52.73859 3.23297 -0.04276 0.04191 0.01099 -18.05886 -6.70230 16.91026 -14.77397 19.61687 4.74543 -99.88459 -54.13657 -82.81805 -34.26568 54.72802 -97.56857 6.55232 7.33523 -3.56648 5.11482 18.51103 9.76677 61.94736 -17.37566 63.52328 21.94890 44.36471 111.39384 5.03510 4.63139 10.64259 -0.71156 -65.40503 -6.84612 73.24620 60.33503 -57.02617 -23.72291 0.00844 -0.00533 -15.72382 -20.55533 -12.01786 -39.51947 -53.95292 -30.67292 -128.02974 67.71387 136.89676 65.70715 0.22038 0.09480 -61.16976 -54.02056 -6.23830 
45.66019 55.90086 -126.60356 2.57678 -2.26088 -7.35089 -24.09520 57.73306 9.32744 -0.04895 0.01609 0.00721 -18.17110 -8.20542 14.62541 -9.87920 15.27003 2.14579 -97.63611 -53.19250 -80.62583 -33.22287 54.35608 -99.92601 5.13127 8.98454 -3.24955 0.38193 16.14235 17.73592 70.69118 -25.02819 64.17105 21.01309 45.35235 114.38211 -4.81214 12.53995 1.20588 -6.22272 -74.59822 -12.10790 90.65273 64.27299 -77.75296 -21.67973 -0.03876 0.03137 -17.18913 -21.95015 -14.46038 -45.92636 -57.33595 -31.13964 -146.74612 63.81975 155.62907 73.53236 0.21667 0.04694 -101.34878 -58.54707 -40.22140 
45.75007 51.12247 -127.25198 3.02312 -2.33763 -4.42874 -32.95382 61.55754 18.83795 -0.05034 0.00080 0.00617 -17.43775 -9.26153 11.85024 -4.70189 11.12953 -0.16885 -95.83308 -52.13258 -78.87551 -32.73505 53.85612 -102.17380 6.41367 8.63861 -3.12127 7.04515 12.10287 13.73858 68.11656 -22.12296 67.09926 21.88555 43.67260 113.64234 0.73153 7.58344 5.68326 -12.21250 -82.97661 -17.39400 108.91988 66.39539 -100.05340 -17.99283 -0.05527 0.05835 -18.26751 -22.95883 -16.48181 -51.44982 -59.63098 -29.82557 -158.66505 59.47898 168.38242 81.64351 0.20536 -0.00134 -95.06163 -60.98507 -28.45733 
45.83426 46.87970 -127.55134 3.51930 -2.56982 -1.86821 -44.14186 63.33970 31.31767 -0.05401 -0.03547 0.00838 -15.76862 -10.89634 8.56942 0.55596 7.39178 -2.32940 -94.07486 -50.86771 -77.36303 -32.59485 53.22227 -104.08810 5.40851 9.83370 -2.30615 13.30586 8.30750 9.98394 65.58789 -19.39837 71.97442 22.76710 44.72268 114.85094 -8.35317 13.11778 -2.81876 4.14480 -90.00000 0.00000 122.47886 66.23500 -118.08545 -14.59756 -0.02682 0.02998 -19.31731 -23.12241 -17.28135 -54.62730 -60.75633 -25.62046 -164.51352 55.88618 174.27750 91.18115 0.23123 -0.18477 -107.13474 -62.92556 -35.25064 
45.84713 43.34797 -127.54819 4.04461 -2.93370 0.34415 -53.34423 63.58368 41.97702 0.04610 -0.04812 -0.04191 -14.54040 -13.07789 5.40959 4.47444 4.43068 -3.89054 -92.68355 -49.53792 -76.47289 -32.75303 52.47516 -105.55352 5.80092 9.68846 -1.78260 17.78007 5.25018 7.11309 64.18224 -18.17531 74.60572 23.28658 45.41130 116.57976 6.01821 7.10252 9.69097 150.22549 -84.88895 147.24600 130.97755 66.23491 -130.97820 -11.10939 -0.01597 0.00314 -19.90488 -22.95310 -17.57728 -55.41749 -60.53767 -18.93065 -171.14655 53.60949 181.07466 90.13078 -0.01120 -0.00166 -98.37545 -64.75002 -29.79475 
46.04891 40.73232 -127.18106 4.57307 -3.40637 2.24957 -59.56541 62.90171 49.71688 0.05021 -0.05185 -0.04916 -13.43983 -15.63060 2.34036 0.27454 -6.78169 -1.64488 -80.39015 -42.95592 -69.28442 -31.73068 49.54429 -106.78124 14.24259 19.59263 -11.38059 15.57778 -3.41704 12.50128 68.15710 -22.81802 70.91834 26.83885 45.67604 113.95112 -2.51449 10.10373 -4.26518 143.08264 -81.55328 141.30315 137.15956 67.18074 -140.86305 -7.47043 -0.01242 -0.01089 -20.19178 -22.27270 -17.34042 -54.62698 -58.86487 -11.03639 -176.05673 52.50467 186.41467 89.08497 -0.02434 0.01597 -95.97419 -66.42139 -30.71550 
46.35468 38.97107 -126.64173 5.10048 -3.96340 3.89421 -63.00382 61.77440 54.63953 0.04147 -0.04172 -0.04333 -12.42448 -18.57003 -0.65723 2.64379 -6.99484 -3.04632 -87.87687 -40.42170 -79.47265 -33.53479 49.00209 -102.02276 2.23446 7.73303 1.90701 18.81810 -4.16582 9.34129 68.05774 -22.27663 74.33238 28.61763 46.35538 113.81851 5.89802 17.48082 17.77130 135.18324 -79.72591 134.54095 143.06993 68.75873 -149.61424 -3.86341 -0.01051 -0.01159 -20.24039 -21.81442 -17.08783 -53.22574 -55.96247 -3.29859 -180.09192 52.39121 190.76299 87.73718 -0.02861 0.01969 -90.27542 -68.15360 -28.21526 
47.15806 38.28253 -125.89994 5.60281 -4.59188 5.26530 -61.99294 59.93712 54.92716 0.04974 -0.13001 -0.06826 -11.34478 -20.61400 -2.86723 4.11101 -5.60167 -3.99635 -94.56063 -36.51968 -89.63445 -36.89676 49.01241 -94.32892 18.70461 19.20175 -22.18270 21.41677 -3.34871 6.80139 70.58898 -22.97027 80.54325 28.56299 48.05367 115.78990 -3.61703 13.35220 -0.15784 125.58089 -79.11392 126.07697 153.26849 69.68540 -161.91945 0.63968 -0.00509 0.05122 -20.38669 -22.69747 -17.00234 -52.01727 -52.11922 3.32359 -184.30743 54.48138 193.70935 85.91020 -0.00444 0.03437 -82.29259 -68.34688 -23.33156 
48.32320 38.23691 -125.09468 6.06288 -5.26224 6.37739 -57.79328 57.76692 51.60502 0.06366 -0.10566 -0.07496 -10.23331 -22.23850 -4.33562 5.06200 -2.93055 -4.85071 -98.30270 -34.07099 -94.94139 -38.70086 49.46154 -90.13790 6.84263 16.30813 -17.91776 23.14618 -1.16863 4.75051 72.27455 -23.40225 84.09290 28.63791 49.44868 117.31219 -0.01329 11.21080 5.40671 113.49223 -79.31174 115.11785 161.88380 70.71112 -171.79037 4.55310 0.01281 0.03673 -20.55901 -23.63687 -16.86745 -51.42575 -47.77158 8.36845 -189.34549 57.84631 196.57732 83.38325 0.00943 0.06402 -72.83277 -67.38326 -16.81011 
50.23475 39.10576 -124.14278 6.43188 -5.96609 7.18030 -51.66092 55.35013 45.86470 0.07316 -0.07352 -0.07532 -9.08444 -23.61875 -5.08524 5.74362 0.35901 -5.39430 -100.92505 -33.01745 -97.75242 -37.99816 51.13747 -94.12336 12.87588 16.12453 -10.66443 28.17518 -8.87612 6.04933 68.39198 -24.34201 77.36071 34.82619 51.99428 112.11590 -6.05971 11.15741 -3.99075 96.76651 -79.93288 99.57742 171.19020 70.50838 -181.33197 8.58228 0.00715 0.08906 -21.04110 -25.92027 -17.19657 -51.46333 -43.17942 11.89756 -195.94623 62.81895 200.53845 68.88751 0.12208 0.47296 -52.91230 -64.65959 -11.52729 
